<svg xmlns="http://www.w3.org/2000/svg" viewBox="0 0 90 90" width="90" height="90">
  <circle cx="45" cy="45" r="45" fill="#C71D23"/>
  <path d="M67.56,39.87 L42.09,39.87 C40.86,39.87 39.87,40.86 39.87,42.09 L39.87,47.62 C39.87,48.85 40.86,49.84 42.08,49.84 L57.59,49.84 C58.81,49.84 59.81,50.83 59.81,52.05 L59.81,53.16 C59.81,56.83 56.83,59.81 53.16,59.81 L32.12,59.81 C30.89,59.81 29.90,58.81 29.90,57.59 L29.90,36.55 C29.90,32.88 32.88,29.90 36.55,29.90 L67.55,29.90 C68.78,29.90 69.77,28.91 69.77,27.69 L69.77,22.15 C69.77,20.93 68.78,19.94 67.56,19.94 L36.55,19.94 C27.37,19.94 19.94,27.37 19.94,36.55 L19.94,67.56 C19.94,68.78 20.93,69.77 22.15,69.77 L54.82,69.77 C63.08,69.77 69.77,63.08 69.77,54.82 L69.77,42.09 C69.77,40.86 68.78,39.87 67.56,39.87 Z" fill="#FFFFFF"/>
</svg>